<svg id="Слой_1" data-name="Слой 1" xmlns="http://www.w3.org/2000/svg" viewBox="0 0 179 50"><defs><style>.cls-1{fill:#ff0;}</style></defs><path d="M22.62 35.66V39h-5V9.15h5V21a8.63 8.63 0 0 1 7.32-4C35.06 17 40 21 40 28.26s-4.9 11.21-10.06 11.21a8.8 8.8 0 0 1-7.32-3.81zM35 28.17c0-4.17-2.82-6.92-6.18-6.92s-6.3 2.78-6.3 7 2.95 6.92 6.3 6.92 6.18-2.66 6.18-7zM45.37 9.15h5V39h-5zM70 39v-2.64a8.73 8.73 0 0 1-7 3.11c-4.09 0-7.69-2.33-7.69-6.75 0-4.79 3.72-7.08 8.76-7.08a18.2 18.2 0 0 1 6 .9v-.41c0-3-1.88-4.62-5.32-4.62a15 15 0 0 0-6.18 1.35l-1.35-4a18.53 18.53 0 0 1 8.23-1.8c6.38 0 9.49 3.36 9.49 9.13V39zm.12-9a14.16 14.16 0 0 0-5-.86c-3.11 0-5 1.27-5 3.44s1.84 3.19 4.17 3.19c3.27 0 5.73-1.84 5.73-4.54zm10.65 13.07l1.84-3.72a14.06 14.06 0 0 0 7.69 2.29c4.42 0 6.83-2.29 6.83-6.63v-1.68a9.05 9.05 0 0 1-7.61 4 9.73 9.73 0 0 1-9.82-10.22A9.74 9.74 0 0 1 89.52 17a9.32 9.32 0 0 1 7.57 3.68v-3.27h5V34.6c0 3.64-.94 6.34-2.74 8.14-2 2-5 2.91-8.88 2.91a18.61 18.61 0 0 1-9.7-2.58zm16.41-16a6 6 0 0 0-6.34-6 6 6 0 1 0 0 12 6.08 6.08 0 0 0 6.34-5.96zm9.82 1.19a11.52 11.52 0 1 1 11.5 11.25A11.3 11.3 0 0 1 107 28.26zm18.09 0a6.68 6.68 0 0 0-6.63-7c-4 0-6.51 3.11-6.51 7a6.7 6.7 0 0 0 6.59 7c4.05-.05 6.59-3.2 6.59-7z"/><circle class="cls-1" cx="152" cy="28.4" r="10"/></svg>