<svg id="b" data-name="b" xmlns="http://www.w3.org/2000/svg" viewBox="0 0 179 50"><defs><style>.l{fill:#ff0;}</style></defs><path d="M22.62 35.66V39h-5V9.15h5V21a8.63 8.63 0 0 1 7.32-4C35.06 17 40 21 40 28.26s-4.9 11.2-10.06 11.2a8.8 8.8 0 0 1-7.32-3.8zM35 28.16c0-4.16-2.82-6.9-6.18-6.9s-6.3 2.77-6.3 7 2.95 6.9 6.3 6.9 6.18-2.65 6.18-7zm10.37-19h5V39h-5zM70 39v-2.64a8.73 8.73 0 0 1-7 3.1c-4.1 0-7.7-2.32-7.7-6.74 0-4.8 3.73-7.08 8.77-7.08a18.2 18.2 0 0 1 6 .9v-.4c0-3-1.88-4.63-5.32-4.63a15 15 0 0 0-6.18 1.4l-1.35-4a18.53 18.53 0 0 1 8.23-1.8c6.38 0 9.5 3.4 9.5 9.17V39zm.12-9a14.16 14.16 0 0 0-5-.86c-3.1 0-5 1.27-5 3.44s1.84 3.2 4.17 3.2c3.2 0 5.7-1.85 5.7-4.55zm10.65 13.07l1.84-3.72a14.06 14.06 0 0 0 7.7 2.3c4.5 0 6.9-2.3 6.9-6.64v-1.6a9.05 9.05 0 0 1-7.6 4 9.73 9.73 0 0 1-9.9-10.3A9.74 9.74 0 0 1 89.54 17a9.32 9.32 0 0 1 7.57 3.68V17.4h5v17.2c0 3.64-1 6.34-2.8 8.14-2 2-5 2.9-8.9 2.9a18.6 18.6 0 0 1-9.7-2.57zm16.4-16a6 6 0 0 0-6.33-6 6 6 0 1 0 0 12 6.08 6.08 0 0 0 6.34-5.96zm9.83 1.2a11.52 11.52 0 1 1 11.5 11.24A11.3 11.3 0 0 1 107 28.3zm18.1 0a6.68 6.68 0 0 0-6.64-7c-4 0-6.5 3.1-6.5 7a6.7 6.7 0 0 0 6.58 7c4.05-.06 6.6-3.2 6.6-7z"/><circle class="l" cx="152" cy="28.4" r="10"/></svg>