<svg id="e" data-name="e" xmlns="http://www.w3.org/2000/svg" viewBox="0 0 574 71"><defs><style>.e{fill:#000;}</style></defs><g id="g" data-name="g"><path id="c1" data-name="c1" class="e" d="M26.8 71Q15 71 7.6 63.6T0 44.3a27 27 0 0 1 7.2-19 23.7 23.7 0 0 1 18-7.7q12.3 0 18.7 8t6 20v3.7H14a12.5 12.5 0 0 0 4.3 7.5 12.8 12.8 0 0 0 8 2.5 18 18 0 0 0 13-5.3l8.2 7.4Q40 71 26.7 71zM14.3 40.2h22a14 14 0 0 0-3.6-8 9.7 9.7 0 0 0-7.3-3 10 10 0 0 0-7.4 3 14.3 14.3 0 0 0-3.7 8z"/><path id="c2" data-name="c2" class="e" d="M61 70V0h14.7v37.2l17-18.6H110L90.7 38.8l20.2 31H94L80.8 49l-5 5.4V70z"/><path id="c3" data-name="c3" class="e" d="M160.4 63.3a27.4 27.4 0 0 1-19.8 7.7q-12 0-19.8-7.7a25.5 25.5 0 0 1-8-19 25.4 25.4 0 0 1 8-19 27.4 27.4 0 0 1 20-7.7q11.8 0 19.7 7.7a25.5 25.5 0 0 1 8 19 25.4 25.4 0 0 1-8 19zm-19.6-4.8a12.3 12.3 0 0 0 9.6-4 14.6 14.6 0 0 0 3.7-10.2 14.4 14.4 0 0 0-3-10 12.5 12.5 0 0 0-9.3-4 12.3 12.3 0 0 0-9.7 4 14.6 14.6 0 0 0-3.7 10 14.3 14.3 0 0 0 3.7 10 12.5 12.5 0 0 0 10 4.2z"/><path id="c4" data-name="c4" class="e" d="M179 70V18.5h14.5v7.2q6.4-8.2 15-8.2 8.2 0 12.8 5t4.6 14V70h-15V41q0-5-3-7.7a8 8 0 0 0-6.6-2.7 8.6 8.6 0 0 0-6.7 2.7q-2 2.7-2 7.7v29z"/><path id="c5" data-name="c5" class="e" d="M283.6 63.3a27.4 27.4 0 0 1-20 7.7Q252 71 244 63.3a25.5 25.5 0 0 1-8-19 25.4 25.4 0 0 1 8-19 27.4 27.4 0 0 1 20-7.7q11.8 0 19.7 7.7a25.5 25.5 0 0 1 8 19 25.4 25.4 0 0 1-8 19zM264 58.5a12.3 12.3 0 0 0 9.6-4 14.6 14.6 0 0 0 3.6-10.2 14.4 14.4 0 0 0-3.8-10 12.5 12.5 0 0 0-9.7-4 12.3 12.3 0 0 0-9.6 4 14.6 14.6 0 0 0-3 10 14.3 14.3 0 0 0 4 10 12.5 12.5 0 0 0 10 4.2z"/><path id="c6" data-name="c6" class="e" d="M302 70V18.5h14.6v7.2q6.5-8.2 15.2-8.2 10.2 0 14.4 8 7-8 17-8 8 0 12.6 4.8t4.6 14v33.4h-14.6V41.3q0-10.5-8.5-10.5a8 8 0 0 0-6.4 2.7q-3 2.7-3 7.8V70h-14V41q0-10.4-9-10.4a8 8 0 0 0-6.7 2.7Q316 36 316 41v29z"/><path id="c7" data-name="c7" class="e" d="M393.3 13V0h15.3v13zm.4 57V18.5h14.5V70z"/><path id="c8" data-name="c8" class="e" d="M422 70V0h14.4v37.2l17-18.6H471l-19.6 20.2 20.2 31H455l-13.5-21-5 5.4v15.6z"/><path id="c9" data-name="c9" class="e" d="M492 70.8a19 19 0 0 1-12.5-4.2q-5-4.2-5-11.7 0-9 5.7-13t15-4a38.3 38.3 0 0 1 12.6 2v-1q0-9.7-11-9.7a41.2 41.2 0 0 0-14.2 3L479 22a49 49 0 0 1 20-4q11.4 0 17.2 5.6 5.5 5.6 5.5 16.4v30h-14v-5.7q-6 6.5-15.6 6.5zm4.5-10a12.7 12.7 0 0 0 8.3-2.5 8 8 0 0 0 3-6.5v-2.6a21.8 21.8 0 0 0-9.2-2q-4.7 0-7.4 2a6.2 6.2 0 0 0-2.6 5.3 5.4 5.4 0 0 0 2.2 4.5 9.2 9.2 0 0 0 5.7 1.8z"/></g><path class="e" d="M554.2 28.6h8.5v31h-8.5z" id="g2" data-name="g2"/><path class="e" d="M574 40v8.4h-31V40z" id="g3" data-name="g3"/></svg>