<svg id="Capa_1" data-name="Capa 1" xmlns="http://www.w3.org/2000/svg" viewBox="0 0 90 90"><defs><style>.cls-1{fill:#fff;}.cls-2{fill:#23599b;}</style></defs><title>facebook-logo 2</title><rect class="cls-1" x="7" y="5" width="75.33" height="85"/><path id="Facebook_alt_" data-name="Facebook (alt)" class="cls-2" d="M90,4.67A4.68,4.68,0,0,0,85.33,0H4.67A4.68,4.68,0,0,0,0,4.67V85.33A4.68,4.68,0,0,0,4.67,90H45V56H34V41H45V35.16C45,25.08,52.57,16,61.88,16H74V31H61.88C60.55,31,59,32.61,59,35v6H74V56H59V90H85.33A4.68,4.68,0,0,0,90,85.33Z"/></svg>